<svg xmlns="http://www.w3.org/2000/svg" viewBox="0 0 64 64">
  <rect width="64" height="64" rx="13" fill="#1E0A0E"/>
  <g transform="translate(14.053,50.263) scale(0.05263,-0.05263)">
    <path d="M655 708V688Q621 687 603.5 678.0Q586 669 580.0 649.0Q574 629 574 592V291Q574 221 565.0 169.0Q556 117 533 79Q508 37 460.0 11.5Q412 -14 350 -14Q302 -14 258.5 -2.5Q215 9 182 40Q153 68 136.5 99.0Q120 130 114.0 175.0Q108 220 108 288V602Q108 639 102.0 656.5Q96 674 78.5 680.5Q61 687 27 688V708Q48 707 82.0 706.0Q116 705 155 705Q190 705 224.5 706.0Q259 707 282 708V688Q248 687 230.5 680.5Q213 674 207.0 656.5Q201 639 201 602V271Q201 220 206.0 174.5Q211 129 226.5 94.5Q242 60 274.0 40.5Q306 21 359 21Q435 21 476.5 54.5Q518 88 534.5 147.0Q551 206 551 280V592Q551 629 542.5 649.0Q534 669 514.0 678.0Q494 687 460 688V708Q478 707 507.5 706.0Q537 705 562 705Q588 705 613.5 706.0Q639 707 655 708Z" fill="#D4A882"/>
  </g>
</svg>
