<svg xmlns="http://www.w3.org/2000/svg" viewBox="0 0 64 64" fill="none">
  <path d="M32 4.5 L55.5 11.5 V29.5 C55.5 44.5 45.8 55.6 32 60 C18.2 55.6 8.5 44.5 8.5 29.5 V11.5 Z"
        stroke="#CC9966" stroke-width="3" stroke-linejoin="round"/>
  <g fill="#CC9966" transform="translate(13.00,41.17) scale(0.01763,-0.01763)">
    <path transform="translate(0,0)" d="M655 708V688Q621 687 603.5 678.0Q586 669 580.0 649.0Q574 629 574 592V291Q574 221 565.0 169.0Q556 117 533 79Q508 37 460.0 11.5Q412 -14 350 -14Q302 -14 258.5 -2.5Q215 9 182 40Q153 68 136.5 99.0Q120 130 114.0 175.0Q108 220 108 288V602Q108 639 102.0 656.5Q96 674 78.5 680.5Q61 687 27 688V708Q48 707 82.0 706.0Q116 705 155 705Q190 705 224.5 706.0Q259 707 282 708V688Q248 687 230.5 680.5Q213 674 207.0 656.5Q201 639 201 602V271Q201 220 206.0 174.5Q211 129 226.5 94.5Q242 60 274.0 40.5Q306 21 359 21Q435 21 476.5 54.5Q518 88 534.5 147.0Q551 206 551 280V592Q551 629 542.5 649.0Q534 669 514.0 678.0Q494 687 460 688V708Q478 707 507.5 706.0Q537 705 562 705Q588 705 613.5 706.0Q639 707 655 708Z"/><path transform="translate(642,0)" d="M907 708V688Q888 684 865.0 665.5Q842 647 828 601L639 -5Q637 -5 635.0 -5.0Q633 -5 631 -5Q629 -5 627.0 -5.0Q625 -5 623 -5L411 624Q398 663 382.0 675.0Q366 687 352 688V708Q370 707 397.0 706.0Q424 705 449 705Q488 705 522.0 706.0Q556 707 577 708V688Q547 687 529.5 682.0Q512 677 509.5 660.0Q507 643 519 604L668 143L654 131L786 546Q804 601 802.5 631.5Q801 662 780.0 674.5Q759 687 717 688V708Q746 707 776.0 706.0Q806 705 832 705Q858 705 875.0 706.0Q892 707 907 708ZM208 708V688Q182 686 170.5 678.0Q159 670 159.5 652.5Q160 635 170 604L325 131L300 106L440 553L455 529L290 -5Q288 -5 286.0 -5.0Q284 -5 282 -5Q280 -5 278.0 -5.0Q276 -5 274 -5L62 624Q49 663 29.0 675.0Q9 687 -7 688V708Q13 707 42.5 706.0Q72 705 100 705Q133 705 161.5 706.0Q190 707 208 708Z"/><path transform="translate(1507,0)" d="M42 708Q63 707 97.0 706.0Q131 705 164 705Q211 705 254.0 706.0Q297 707 315 707Q396 707 449.5 684.0Q503 661 529.5 621.5Q556 582 556 533Q556 503 544.0 469.0Q532 435 502.5 405.0Q473 375 422.0 355.5Q371 336 293 336H197V356H283Q354 356 391.5 378.5Q429 401 442.5 438.5Q456 476 456 522Q456 601 418.5 644.5Q381 688 290 688Q244 688 230.0 671.0Q216 654 216 602V106Q216 70 222.0 52.0Q228 34 245.5 28.0Q263 22 297 20V0Q274 2 239.5 2.5Q205 3 170 3Q131 3 97.0 2.5Q63 2 42 0V20Q76 22 93.5 28.0Q111 34 117.0 52.0Q123 70 123 106V602Q123 639 117.0 656.5Q111 674 93.5 680.5Q76 687 42 688ZM201 353Q255 351 286.0 348.5Q317 346 336.5 344.0Q356 342 374 339Q441 328 470.5 298.5Q500 269 514 207L539 105Q549 61 559.5 41.5Q570 22 592 23Q609 24 620.5 34.0Q632 44 645 61L660 50Q639 19 616.5 2.5Q594 -14 553 -14Q516 -14 488.0 8.0Q460 30 446 94L424 194Q415 237 403.5 268.5Q392 300 371.5 318.0Q351 336 311 336H203Z"/>
  </g>
</svg>
