<svg xmlns="http://www.w3.org/2000/svg" viewBox="0 0 397 331">
  <defs>
    <linearGradient id="uwr-gold" x1="0" y1="0" x2="0" y2="1">
      <stop offset="0" stop-color="#E9CBA3"/>
      <stop offset="0.55" stop-color="#CC9966"/>
      <stop offset="1" stop-color="#B98A55"/>
    </linearGradient>
  </defs>
  <path d="M374.5 328.0C371.8 327.5 364.9 327.1 359.3 327.1L349.0 327.0L339.4 307.2C334.1 296.4 325.1 278.1 319.5 266.5C313.9 254.9 306.1 239.0 302.2 231.0L295.1 216.5L294.8 193.2L294.5 170.0L298.8 170.0C311.2 170.0 328.0 163.7 339.7 154.8C359.9 139.2 369.6 110.0 363.8 82.5C362.3 75.4 354.9 60.4 349.8 54.3C340.6 43.2 325.9 34.5 311.8 31.6C307.5 30.7 299.1 30.0 292.8 30.0L281.5 30.0L281.6 126.3C281.8 227.6 281.1 261.7 278.6 274.0C277.8 278.1 275.7 290.5 274.0 301.5C272.3 312.5 270.7 323.0 270.4 324.8L269.9 328.0L257.6 328.0L245.3 328.0L243.0 321.8C238.8 309.9 233.1 294.4 227.0 278.5C223.6 269.7 217.7 254.2 213.8 244.0C210.0 233.8 203.1 215.6 198.5 203.4C193.9 191.3 189.0 177.7 187.5 173.2C186.0 168.7 184.3 165.0 183.7 165.0C183.0 165.0 181.6 167.4 180.6 170.2C177.9 178.2 172.3 193.1 167.3 206.0C164.9 212.3 161.3 221.6 159.4 226.5C157.5 231.4 155.5 236.4 155.0 237.5C154.6 238.6 152.0 245.1 149.4 252.0C146.8 258.9 142.3 270.8 139.4 278.5C136.5 286.2 132.4 296.8 130.2 302.1C128.0 307.4 125.1 315.2 123.6 319.6L121.0 327.5L109.0 327.8C97.2 328.1 97.1 328.1 96.6 325.8C95.8 322.3 91.3 291.5 89.0 274.5C87.9 266.2 86.7 258.7 86.4 257.8C85.9 256.1 86.9 256.0 98.9 256.0L112.0 256.0L112.0 259.4C112.0 264.1 113.1 269.0 114.1 269.0C114.6 269.0 114.9 268.7 114.9 268.2C114.5 265.8 115.1 264.0 116.2 264.6C117.0 265.1 117.1 264.8 116.7 263.7C116.4 262.7 116.5 262.0 117.0 262.0C117.6 262.0 117.9 261.7 117.8 261.2C117.5 259.7 119.3 255.0 120.2 255.0C120.8 255.0 120.9 254.3 120.6 253.4C120.2 252.5 120.6 251.0 121.3 250.1C122.1 249.2 123.0 247.3 123.4 245.8C123.7 244.3 124.5 241.8 125.2 240.3C125.8 238.8 126.5 236.6 126.7 235.5C126.9 234.5 127.6 233.2 128.3 232.8C128.9 232.4 129.1 232.0 128.6 232.0C128.1 232.0 128.3 231.3 129.0 230.5C129.7 229.6 130.0 228.7 129.7 228.4C129.4 228.1 130.4 225.3 132.0 222.1C133.5 219.0 135.1 215.4 135.4 214.0C137.1 207.6 138.4 204.0 139.1 204.0C139.5 204.0 140.8 200.7 141.9 196.8C143.1 192.8 144.9 187.7 145.9 185.5C150.2 176.3 152.0 172.0 152.0 170.8C152.0 170.1 152.7 168.2 153.5 166.7C154.3 165.1 155.6 161.7 156.4 159.2C157.9 154.1 160.0 148.9 163.1 142.4C164.1 140.2 165.0 137.9 165.0 137.3C165.0 136.8 165.7 134.8 166.6 133.0C167.5 131.2 168.6 128.4 169.1 126.6C169.5 124.9 171.9 118.5 174.4 112.5C177.0 106.5 179.1 100.5 179.2 99.3C179.3 98.1 179.9 97.4 180.4 97.7C180.9 98.1 181.1 97.6 180.7 96.6C180.3 95.7 180.4 95.1 180.9 95.4C181.7 96.0 182.6 93.6 183.6 88.1C183.9 86.8 184.7 84.5 185.5 82.9C186.3 81.4 187.0 79.5 187.0 78.8C187.0 78.1 188.0 75.7 189.1 73.5C190.3 71.3 191.8 67.8 192.6 65.8C193.3 63.7 195.3 59.2 196.9 55.8C198.6 52.3 200.0 48.5 200.0 47.2C200.0 46.0 200.7 43.3 201.7 41.2C202.6 39.2 203.4 37.3 203.5 37.0C203.5 36.7 204.8 34.1 206.3 31.2C207.8 28.3 208.8 25.4 208.4 24.8C208.0 24.2 208.1 24.0 208.7 24.3C209.3 24.7 210.0 23.7 210.3 22.1C210.7 20.4 212.3 15.5 214.0 11.1L217.1 3.0L226.6 2.8C231.8 2.8 238.2 2.6 241.0 2.5C243.8 2.4 246.0 2.7 246.0 3.2C246.0 3.6 245.4 5.4 244.6 7.2C243.8 9.0 241.3 15.4 239.0 21.5C232.8 37.8 230.3 44.1 224.5 59.0C221.6 66.4 218.2 75.4 217.0 79.0C215.7 82.6 214.3 86.0 213.9 86.5C213.1 87.5 209.3 97.5 204.9 110.0C203.8 113.0 201.8 118.3 200.4 121.8L197.9 128.0L200.5 135.3C203.6 144.0 220.8 189.0 229.7 212.0C233.3 221.1 239.0 236.2 242.5 245.5C246.0 254.8 249.9 264.9 251.2 267.9C253.3 272.5 253.8 273.0 254.6 271.4C255.1 270.3 255.6 214.6 255.7 136.0L255.8 2.5L282.7 2.5C310.3 2.6 315.1 3.1 328.0 7.2C360.5 17.6 383.0 43.6 390.5 79.6C392.6 89.6 392.7 111.5 390.6 122.2C389.0 130.5 384.7 142.2 380.4 149.8C378.9 152.4 377.1 155.6 376.4 157.0C374.4 160.8 361.3 173.6 354.4 178.6C346.3 184.4 333.0 190.6 324.5 192.6C320.6 193.5 316.8 194.5 315.9 194.8C314.5 195.4 319.7 206.6 347.4 262.3C365.6 299.0 380.3 329.0 380.0 328.9C379.7 328.8 377.2 328.4 374.5 328.0ZM101.0 241.3C77.7 239.6 60.7 233.8 43.3 221.8C27.8 211.1 14.7 193.4 8.2 174.5C3.2 159.9 3.0 155.6 2.7 76.2L2.5 2.0L16.7 2.0L30.8 2.0L31.0 76.5C31.1 146.9 31.2 151.4 33.0 158.6C38.4 179.8 52.9 196.7 73.3 205.9C85.7 211.5 90.4 212.4 106.2 212.4C114.2 212.5 120.6 212.9 120.3 213.4C120.0 213.8 117.6 220.4 115.0 227.9C109.8 243.0 110.7 242.1 101.0 241.3ZM86.8 195.3L83.0 193.8L82.9 101.6C82.9 51.0 82.8 7.9 82.7 6.0L82.5 2.5L96.8 2.2L111.0 1.9L111.0 99.5L111.0 197.0L100.8 196.9C93.9 196.9 89.3 196.4 86.8 195.3ZM160.1 103.4C157.8 97.2 155.7 91.8 146.6 68.5C143.6 60.8 138.2 46.4 134.6 36.5C130.9 26.6 126.6 15.1 125.0 10.9C123.3 6.7 122.0 3.0 122.0 2.7C122.0 2.3 128.7 2.0 136.9 2.0L151.7 2.0L154.5 9.8C156.0 14.0 161.7 29.5 167.1 44.2L177.0 71.0L172.5 82.7C170.0 89.2 166.6 97.8 165.1 101.9L162.2 109.3L160.1 103.4Z" fill="url(#uwr-gold)" fill-rule="evenodd"/>
</svg>